#!OML:ASF F:\VICON\USERDATA\INSTALL\rory3\rory3.ASF
:FULLY-SPECIFIED
:DEGREES
18
root 1.146422485618314 18.139687477436535 -11.82698993007425 -2.0087219603280895 -3.8441847958349626 -2.03514014519129
lfemur -16.747294217553964 -2.2313908759017136 -19.89559987837405
ltibia 18.544307229691015
lfoot 0.46502976468469104 -2.7023474983473657
ltoes -1.4908629118602024
rfemur 2.6425596775153473 4.99552807786817 25.510700247991963
rtibia 52.25539098000603
rfoot 16.642173830803138 1.0449862285590408
rtoes 8.031063113784592
lowerback 8.664065242968688 2.023601954286588 2.7839264756669766
upperback -0.3223626582935387 3.025792657222251 0.8691240530133286
thorax -5.099006589299064 1.4315825871116004 -1.046792005816155
lowerneck -17.027696435408743 -3.2087130570696423 -1.825162594356737
upperneck 22.696582037881395 -4.075054817538395 0.3347951297906404
head 10.09108424897547 -1.9984218779066987 -0.1316820654365514
lclavicle -2.7971981472530934e-15 -4.160076361964552e-16
lhumerus -38.60758637660644 9.87028270005888 79.61161996028162
lradius 18.10891544921226
lwrist -1.0797216922697483
lhand -25.56020781660201 21.026007300238348
lfingers 7.1250199999999975
lthumb 0.9705011831497311 51.003507277277656
rclavicle -2.7971981472530934e-15 -4.160076361964552e-16
rhumerus -28.658498658268833 -17.94830013386071 -79.42479886971151
rradius 25.550397674835715
rwrist 5.960560648578679
rhand -17.69069882932043 26.473582678762657
rfingers 7.1250199999999975
rthumb 8.568851169416797 -3.332527334279308
19
root 1.1862915352013048 18.208983603871697 -10.928290329456734 -2.3716390933895073 -3.2936765143904014 -0.7265103746606247
lfemur -13.603796339901422 -2.163651134592927 -22.13169665037221
ltibia 19.68770659953863
lfoot -2.2723340343530487 -2.143068276884308
ltoes -2.444281557533793
rfemur -4.005625823428922 4.359920359916714 23.804502772579976
rtibia 62.672985052970134
rfoot 10.100380696819999 -3.1455659274075902
rtoes 7.032844650128082
lowerback 9.474974977420148 1.7742634486475533 1.2516599870784006
upperback -0.2857006195404731 2.541124530516878 0.6831069586989365
thorax -5.591654999974718 1.225224312658868 -0.34952088633077183
lowerneck -16.656401568920455 -3.0817964356549266 -1.768453306743762
upperneck 21.47319582121939 -3.9166975651370515 0.38926753991732943
head 9.584817651481414 -1.9209853818997709 -0.08241841870477801
lclavicle -2.7971981595341233e-15 -4.160076167795146e-16
lhumerus -37.26098850077514 6.826208445986102 81.1567111823787
lradius 20.273410812104196
lwrist 0.8556739580669737
lhand -25.69690712643235 23.78409936310993
lfingers 7.1250199999999975
lthumb 0.8385258730836139 53.762199341508456
rclavicle -2.7971981595341233e-15 -4.160076167795146e-16
rhumerus -29.77189561637022 -18.307199535621066 -79.20149962144953
rradius 24.718800217199526
rwrist 5.633311459596265
rhand -17.42470107707866 17.91411905489743
rfingers 7.1250199999999975
rthumb 8.825568921470689 -11.88138089779806
20
root 1.2046010987293858 18.200584073394708 -10.085090704175114 -2.808375643299249 -2.498138997868629 -0.003077119967337616
lfemur -10.779998246402103 -2.5566096339242064 -23.37699485267503
ltibia 20.343906237892725
lfoot -4.790531089675494 -1.4353592620409112
ltoes 1.4077629706562544
rfemur -10.637701335275318 3.3137041161899443 22.775704294849437
rtibia 68.88458151891473
rfoot 2.4226387550855364 -7.906917014931281
rtoes 5.108247612247318
lowerback 9.679112393183624 1.3749058421182956 0.30100716563755225
upperback 0.3626973800249907 1.8977970170471545 0.687555913120822
thorax -5.065017388879169 0.9368827237424173 0.2833704991153767
lowerneck -17.406891192673378 -3.0133782569817877 -1.6320950196884754
upperneck 21.119799802772153 -3.786679821027285 0.17235988877676056
head 9.590437502705866 -1.871817606736281 -0.17165496738430178
lclavicle -2.7971981874458775e-15 -4.1600762281451624e-16
lhumerus -34.93309217287691 6.00997998668088 81.47270938714388
lradius 21.773507598370877
lwrist 2.446976737306639
lhand -27.10360002429877 19.067012937754974
lfingers 7.1250199999999975
lthumb -0.5201580240570483 49.04611290800032
rclavicle -2.7971981874458775e-15 -4.1600762281451624e-16
rhumerus -29.306296888426978 -20.560795779162817 -78.5035019712621
rradius 22.835805973898708
rwrist 9.412722093129993
rhand -17.225802757827196 20.47520817074313
rfingers 7.1250199999999975
rthumb 9.017497240852515 -9.312061848616747
21
root 1.065336596300647 18.11752861659998 2.4502432216742953 -3.6486501838876677 -2.6190619877377332 1.0390578338845424
lfemur -6.983361597508553 -2.610568737436798 -25.069749694219333
ltibia 27.669531983134192
lfoot -9.980640913704292 0.19386675905155237
ltoes -0.44301215246551884
rfemur -18.061569151108227 1.9167196857528905 22.26922110072072
rtibia 64.68628381014811
rfoot -2.383721068163882 -6.850820831694312
rtoes 7.07912387906919
lowerback 10.150087984994896 1.0763847634617294 -0.7491501937892837
upperback 0.4718445933618796 1.3549488279333601 0.45036520081475717
thorax -5.100768376366297 0.6975702186563312 0.8966364426490182
lowerneck -16.58896895938465 -2.785644654435241 -1.7131758596676319
upperneck 21.438369404351675 -3.5108129842979743 0.4425352865737173
head 9.593191961781171 -1.7382713780420647 0.021901627009741326
lclavicle -2.4934437848609907e-15 -2.1339985525891315e-16
lhumerus -32.79989202142198 3.7170399926854074 82.14834326482875
lradius 23.08504819631159
lwrist 3.7932396502865506
lhand -25.776482587833005 24.93928183059942
lfingers 7.1250199999999975
lthumb 0.7616827070119966 54.9036454697492
rclavicle -2.4934437848609907e-15 -2.1339985525891315e-16
rhumerus -27.811315597988795 -19.47663569513482 -78.44477403403492
rradius 23.59544260046208
rwrist 8.026748294350668
rhand -16.696991877257243 21.54049326326484
rfingers 7.1250199999999975
rthumb 9.527746132362257 -8.381239906239118
22
root 1.0069414700760566 18.068013019242713 1.0371846165255345 -3.7458711770297013 -2.3398737825917717 1.8561788778527237
lfemur -3.449269800683033 -2.607386617121126 -26.512109830083986
ltibia 27.163121564351727
lfoot -12.08513637647815 1.2267140402219112
ltoes 0.32285852143549176
rfemur -23.283681311896544 1.1739569009136899 21.451053778612795
rtibia 61.677042051567085
rfoot -5.363276555789467 -6.8221642132071185
rtoes 4.923171689347373
lowerback 10.358264331222673 0.5803655475594475 -1.8021825246438457
upperback 0.615950086772011 0.5677656149775814 0.5412839505792977
thorax -5.087824637518505 0.33556153501637237 1.6292612220004354
lowerneck -16.49602293607235 -2.7547285563031596 -1.9683671261680635
upperneck 21.476042673396066 -3.447840362898459 0.4646536182200392
head 9.589363343634218 -1.7178458543510573 0.07722883453422481
lclavicle -2.3977877879410244e-15 -1.4959617630883221e-16
lhumerus -30.35893895638691 1.1644855472334124 82.4853859575743
lradius 24.13800785410904
lwrist 4.332477513068864
lhand -26.16077795094568 24.86952088065296
lfingers 7.1250199999999975
lthumb 0.39054406301955913 54.8390956609167
rclavicle -2.3977877879410244e-15 -1.4959617630883221e-16
rhumerus -28.506657124557904 -19.646352195349415 -78.39145953702607
rradius 23.78435410473642
rwrist 7.560736172370622
rhand -16.8097638055992 21.73267732195285
rfingers 7.1250199999999975
rthumb 9.418920075887579 -8.102161120165189
23
root 0.9628847421469307 18.027970917655445 1.0456840965648677 -3.380644354173408 -1.7714731516794866 2.461069824276891
lfemur -0.4173106780306979 -2.455495821254337 -27.267875860311186
ltibia 26.810269993191458
lfoot -13.011150489928298 0.8892392610794639
ltoes 1.344773783669416
rfemur -26.50601220411377 1.371808419526504 20.765405768123014
rtibia 53.156736162745126
rfoot -7.7298019309533945 -7.606799860237063
rtoes 1.92057435135974
lowerback 10.446974897146903 0.11672489093268457 -2.495550536793382
upperback 0.6714118060456075 -0.11390874864957268 0.6753795272042494
thorax -5.077906847829198 0.012849791521629017 2.1746562702865995
lowerneck -16.530836479382568 -2.7631226896517163 -2.133785700854731
upperneck 21.432017621773728 -3.4341789460561984 0.46932280305813673
head 9.581496523324388 -1.7189395226520323 0.10070193706211403
lclavicle -2.3282610142577098e-15 -1.0322099878881743e-16
lhumerus -27.960235390989098 -1.3196314176532182 82.63349733756559
lradius 25.69310736551394
lwrist 4.94883242359225
lhand -26.02018468609047 25.336458722870045
lfingers 7.1250199999999975
lthumb 0.5263182311930376 55.30883254821408
rclavicle -2.3282610142577098e-15 -1.0322099878881743e-16
rhumerus -29.15793053962062 -19.430666161007483 -78.54835360792929
rradius 24.221013242949898
rwrist 6.529501079729643
rhand -16.869538265627472 22.214396304530748
rfingers 7.1250199999999975
rthumb 9.36112976055898 -7.562269490321671
24
root 0.9471669992075651 17.97956046965408 2.8150591654539685 -2.633745420755505 -0.8299990740651231 3.3027430173855588
lfemur 3.1931917386165996 -2.0716871962487664 -27.68182069353582
ltibia 23.869368498593516
lfoot -14.350141315751337 1.734866632602629
ltoes 0.9995666112394441
rfemur -26.732192073103857 2.755364260004579 19.250083620078577
rtibia 41.08981537025272
rfoot -7.057018469070796 -10.784908049686633
rtoes 0.14527621749625785
lowerback 10.257675454050222 -0.08506276574199534 -3.2565935896494276
upperback 0.6196508562147454 -0.4690253546987544 0.7497758605952242
thorax -4.982769415394459 -0.1466439322616867 2.7599323459468135
lowerneck -16.68930207492424 -2.7650731743564103 -2.155196591775199
upperneck 21.196508144629135 -3.43225151921651 0.5929840095308807
head 9.529668037119807 -1.7138481938211856 0.14867061282254623
lclavicle -1.6764685476017842e-15 3.3153225305133945e-16
lhumerus -25.700679913418124 -2.804546454526995 82.78702248589543
lradius 27.577608460651053
lwrist 6.202728572100222
lhand -26.293666853615118 26.184649849285968
lfingers 7.1250199999999975
lthumb 0.2621393579299657 56.161466162011024
rclavicle -1.6764685476017842e-15 3.3153225305133945e-16
rhumerus -29.387548352094512 -18.9993702119368 -78.32052178082976
rradius 23.983407507763552
rwrist 6.561109043738709
rhand -16.857667342385966 23.014069244772635
rfingers 7.1250199999999975
rthumb 9.372565195712522 -6.691554400161118
